<svg width="200" height="200" viewBox="0 0 200 200" xmlns="http://www.w3.org/2000/svg">
  <!-- Background circle -->
  <circle cx="100" cy="100" r="95" fill="#37474f" stroke="#607d8b" stroke-width="2"/>
  
  <!-- Academic network nodes -->
  <circle cx="70" cy="60" r="8" fill="#ff6f00"/>
  <circle cx="130" cy="60" r="8" fill="#ff6f00"/>
  <circle cx="100" cy="100" r="10" fill="#ff6f00"/>
  <circle cx="60" cy="120" r="6" fill="#ff6f00"/>
  <circle cx="140" cy="120" r="6" fill="#ff6f00"/>
  <circle cx="100" cy="150" r="8" fill="#ff6f00"/>
  
  <!-- Citation connections -->
  <line x1="70" y1="60" x2="100" y2="100" stroke="#ff6f00" stroke-width="2" opacity="0.7"/>
  <line x1="130" y1="60" x2="100" y2="100" stroke="#ff6f00" stroke-width="2" opacity="0.7"/>
  <line x1="100" y1="100" x2="60" y2="120" stroke="#ff6f00" stroke-width="2" opacity="0.7"/>
  <line x1="100" y1="100" x2="140" y2="120" stroke="#ff6f00" stroke-width="2" opacity="0.7"/>
  <line x1="100" y1="100" x2="100" y2="150" stroke="#ff6f00" stroke-width="2" opacity="0.7"/>
  <line x1="60" y1="120" x2="100" y2="150" stroke="#ff6f00" stroke-width="1.5" opacity="0.5"/>
  <line x1="140" y1="120" x2="100" y2="150" stroke="#ff6f00" stroke-width="1.5" opacity="0.5"/>
  
  <!-- Central icon (brain/AI representation) -->
  <g transform="translate(90,90)">
    <path d="M10 0 C15 0 20 5 20 10 C20 15 15 20 10 20 C5 20 0 15 0 10 C0 5 5 0 10 0 Z" 
          fill="none" stroke="#ffffff" stroke-width="2"/>
    <circle cx="5" cy="8" r="1.5" fill="#ffffff"/>
    <circle cx="15" cy="8" r="1.5" fill="#ffffff"/>
    <path d="M6 14 Q10 12 14 14" stroke="#ffffff" stroke-width="1.5" fill="none"/>
  </g>
  
  <!-- Title text -->
  <text x="100" y="180" text-anchor="middle" font-family="Arial, sans-serif" 
        font-size="14" font-weight="bold" fill="#607d8b">CITATION PLATFORM</text>
</svg>